<svg width="197" height="43" viewBox="0 0 197 43" fill="none" xmlns="http://www.w3.org/2000/svg">
<path d="M27.95 17.5583L21.1417 7.88333L0 43H43.7167L33.325 27.2333L29.7417 34.0417H18.9917L27.95 17.5583Z" fill="#276842"/>
<path d="M54.1083 43L24.725 0H35.8333L66.2917 43H54.1083Z" fill="#276842"/>
<path d="M55.5417 16.8417V0H66.2917V27.95L55.5417 16.8417Z" fill="#276842"/>
<path d="M196.713 18.017C196.713 18.8053 196.526 19.479 196.154 20.038C195.781 20.5827 195.222 20.9983 194.477 21.285C193.731 21.5717 192.807 21.715 191.703 21.715C190.886 21.715 190.184 21.6577 189.596 21.543C189.009 21.4427 188.421 21.2707 187.833 21.027V18.3825C188.464 18.6692 189.145 18.9057 189.876 19.092C190.607 19.2783 191.252 19.3715 191.811 19.3715C192.441 19.3715 192.886 19.2783 193.144 19.092C193.416 18.9057 193.552 18.662 193.552 18.361C193.552 18.1603 193.495 17.9812 193.38 17.8235C193.28 17.6658 193.051 17.4867 192.692 17.286C192.334 17.0853 191.775 16.8273 191.015 16.512C190.284 16.1967 189.682 15.8885 189.209 15.5875C188.736 15.2722 188.385 14.8995 188.156 14.4695C187.926 14.0252 187.812 13.4733 187.812 12.814C187.812 11.7247 188.235 10.9077 189.08 10.363C189.926 9.81833 191.051 9.546 192.456 9.546C193.187 9.546 193.882 9.61766 194.541 9.761C195.201 9.90433 195.881 10.1408 196.584 10.4705L195.616 12.771C195.229 12.599 194.857 12.4485 194.498 12.3195C194.14 12.1905 193.789 12.0902 193.445 12.0185C193.115 11.9468 192.771 11.911 192.413 11.911C191.94 11.911 191.581 11.9755 191.338 12.1045C191.108 12.2335 190.994 12.427 190.994 12.685C190.994 12.8713 191.051 13.0433 191.166 13.201C191.295 13.3443 191.531 13.502 191.875 13.674C192.234 13.846 192.757 14.0753 193.445 14.362C194.118 14.6343 194.699 14.921 195.186 15.222C195.674 15.5087 196.046 15.8742 196.304 16.3185C196.577 16.7485 196.713 17.3147 196.713 18.017Z" fill="#081911"/>
<path d="M185.162 9.761V21.5H182.711L182.281 19.995H182.109C181.866 20.3963 181.55 20.726 181.163 20.984C180.791 21.2277 180.375 21.4068 179.916 21.5215C179.458 21.6505 178.985 21.715 178.497 21.715C177.666 21.715 176.935 21.5645 176.304 21.2635C175.674 20.9625 175.186 20.4967 174.842 19.866C174.498 19.2353 174.326 18.4183 174.326 17.415V9.761H177.53V16.6195C177.53 17.4508 177.68 18.0815 177.981 18.5115C178.282 18.9415 178.763 19.1565 179.422 19.1565C180.081 19.1565 180.59 19.006 180.948 18.705C181.321 18.404 181.579 17.9668 181.722 17.3935C181.88 16.8202 181.959 16.1178 181.959 15.2865V9.761H185.162Z" fill="#081911"/>
<path d="M164.369 15.5015L160.585 9.761H164.219L166.498 13.502L168.798 9.761H172.432L168.605 15.5015L172.604 21.5H168.97L166.498 17.4795L164.025 21.5H160.392L164.369 15.5015Z" fill="#081911"/>
<path d="M154.516 9.546C155.605 9.546 156.537 9.75383 157.311 10.1695C158.099 10.5852 158.708 11.1872 159.138 11.9755C159.568 12.7638 159.783 13.7313 159.783 14.878V16.426H152.215C152.244 17.329 152.509 18.0385 153.011 18.5545C153.527 19.0705 154.236 19.3285 155.139 19.3285C155.899 19.3285 156.587 19.2568 157.203 19.1135C157.82 18.9558 158.458 18.7193 159.117 18.404V20.8765C158.544 21.1632 157.934 21.371 157.289 21.5C156.659 21.6433 155.892 21.715 154.989 21.715C153.814 21.715 152.774 21.5 151.871 21.07C150.968 20.6257 150.259 19.9592 149.743 19.0705C149.227 18.1818 148.969 17.0638 148.969 15.7165C148.969 14.3405 149.198 13.201 149.657 12.298C150.13 11.3807 150.782 10.6927 151.613 10.234C152.445 9.77533 153.412 9.546 154.516 9.546ZM154.537 11.825C153.921 11.825 153.405 12.0257 152.989 12.427C152.588 12.8283 152.352 13.4518 152.28 14.2975H156.773C156.773 13.8245 156.687 13.4017 156.515 13.029C156.358 12.6563 156.114 12.3625 155.784 12.1475C155.455 11.9325 155.039 11.825 154.537 11.825Z" fill="#081911"/>
<path d="M146.056 21.5H141.928L135.242 9.89H135.156C135.17 10.2483 135.184 10.6138 135.199 10.9865C135.213 11.3448 135.227 11.7103 135.242 12.083C135.27 12.4413 135.292 12.8068 135.306 13.1795C135.321 13.5378 135.335 13.9033 135.349 14.276V21.5H132.447V6.149H136.553L143.218 17.6515H143.283C143.268 17.2932 143.254 16.942 143.24 16.598C143.225 16.2397 143.211 15.8885 143.197 15.5445C143.197 15.1862 143.19 14.835 143.175 14.491C143.161 14.1327 143.147 13.7743 143.132 13.416V6.149H146.056V21.5Z" fill="#081911"/>
<path d="M126.209 9.8685C127.499 9.8685 128.459 10.1838 129.09 10.8145C129.721 11.4452 130.036 12.4485 130.036 13.8245V21.5H129.111L128.896 19.565H128.832C128.56 19.995 128.244 20.3748 127.886 20.7045C127.542 21.0198 127.119 21.2707 126.617 21.457C126.13 21.629 125.528 21.715 124.811 21.715C124.095 21.715 123.471 21.5932 122.941 21.3495C122.411 21.0915 122.002 20.726 121.715 20.253C121.429 19.78 121.285 19.1995 121.285 18.5115C121.285 17.3792 121.751 16.5192 122.683 15.9315C123.615 15.3295 124.969 14.9855 126.746 14.8995L128.832 14.8135V13.9965C128.832 12.8642 128.603 12.0687 128.144 11.61C127.7 11.137 127.033 10.9005 126.144 10.9005C125.557 10.9005 124.991 10.9793 124.446 11.137C123.916 11.2803 123.378 11.4882 122.833 11.7605L122.446 10.793C122.977 10.5207 123.564 10.2985 124.209 10.1265C124.854 9.9545 125.521 9.8685 126.209 9.8685ZM126.875 15.8025C125.428 15.8742 124.346 16.1322 123.629 16.5765C122.912 17.0065 122.554 17.6587 122.554 18.533C122.554 19.2353 122.776 19.7728 123.22 20.1455C123.665 20.5038 124.267 20.683 125.026 20.683C126.245 20.683 127.176 20.3462 127.821 19.6725C128.481 18.9988 128.818 18.0528 128.832 16.8345V15.7165L126.875 15.8025Z" fill="#081911"/>
<path d="M111.874 10.406C111.874 10.6927 111.867 10.9722 111.853 11.2445C111.838 11.5168 111.824 11.7892 111.81 12.0615H111.896C112.096 11.6315 112.376 11.2517 112.734 10.922C113.093 10.5923 113.523 10.3343 114.024 10.148C114.54 9.96167 115.121 9.8685 115.766 9.8685C116.64 9.8685 117.378 10.019 117.98 10.32C118.582 10.6067 119.034 11.0582 119.335 11.6745C119.65 12.2765 119.808 13.0648 119.808 14.0395V21.5H118.604V14.104C118.604 13.0003 118.353 12.1905 117.851 11.6745C117.35 11.1585 116.611 10.9005 115.637 10.9005C114.805 10.9005 114.11 11.0653 113.551 11.395C112.992 11.7103 112.569 12.1977 112.283 12.857C112.01 13.502 111.874 14.3047 111.874 15.265V21.5H110.67V5.16H111.874V10.406Z" fill="#081911"/>
<path d="M104.207 9.847C105.669 9.847 106.808 10.3415 107.625 11.3305C108.456 12.3195 108.872 13.7815 108.872 15.7165C108.872 17.0065 108.679 18.103 108.292 19.006C107.905 19.8947 107.353 20.5683 106.636 21.027C105.934 21.4857 105.088 21.715 104.099 21.715C103.425 21.715 102.838 21.6147 102.336 21.414C101.834 21.2133 101.419 20.9482 101.089 20.6185C100.759 20.2888 100.501 19.9233 100.315 19.522H100.229C100.258 19.8803 100.279 20.2745 100.294 20.7045C100.308 21.1202 100.315 21.5072 100.315 21.8655V26.574H99.0896V10.062H100.1L100.251 12.212H100.315C100.501 11.7963 100.767 11.4093 101.111 11.051C101.455 10.6927 101.877 10.406 102.379 10.191C102.895 9.96167 103.504 9.847 104.207 9.847ZM104.035 10.9005C103.189 10.9005 102.494 11.0797 101.949 11.438C101.404 11.7963 100.996 12.3267 100.724 13.029C100.451 13.717 100.315 14.5698 100.315 15.5875V15.8025C100.315 16.8775 100.444 17.7805 100.702 18.5115C100.974 19.2282 101.376 19.7657 101.906 20.124C102.451 20.4823 103.132 20.6615 103.949 20.6615C104.751 20.6615 105.418 20.468 105.948 20.081C106.493 19.6797 106.901 19.1135 107.174 18.3825C107.46 17.6372 107.604 16.7485 107.604 15.7165C107.604 14.1542 107.31 12.9645 106.722 12.1475C106.134 11.3162 105.239 10.9005 104.035 10.9005Z" fill="#081911"/>
<path d="M96.6081 21.5H95.3826V5.16H96.6081V21.5Z" fill="#081911"/>
<path d="M93.4605 21.5L91.418 16.211H85.0325L82.9685 21.5H81.7L87.7415 6.106H88.8595L94.7505 21.5H93.4605ZM88.967 9.546C88.924 9.40266 88.8595 9.20917 88.7735 8.9655C88.6875 8.72183 88.6015 8.46383 88.5155 8.1915C88.4295 7.91917 88.3435 7.6755 88.2575 7.4605C88.1858 7.70417 88.107 7.955 88.021 8.213C87.9493 8.471 87.8705 8.71467 87.7845 8.944C87.7128 9.17333 87.6412 9.38117 87.5695 9.5675L85.4625 15.093H91.031L88.967 9.546Z" fill="#081911"/>
<path d="M147.395 34.7125C147.395 35.2543 147.261 35.7273 146.995 36.1315C146.728 36.5357 146.341 36.8496 145.834 37.0732C145.335 37.2882 144.724 37.3957 144.002 37.3957C143.684 37.3957 143.37 37.3742 143.06 37.3312C142.759 37.2882 142.467 37.228 142.183 37.1506C141.908 37.0646 141.646 36.9614 141.396 36.841V35.0221C141.835 35.2113 142.286 35.3876 142.751 35.551C143.224 35.7058 143.692 35.7832 144.157 35.7832C144.475 35.7832 144.729 35.7402 144.918 35.6542C145.116 35.5682 145.258 35.4521 145.344 35.3059C145.438 35.1597 145.485 34.992 145.485 34.8028C145.485 34.5706 145.404 34.3728 145.24 34.2094C145.086 34.046 144.875 33.8955 144.608 33.7579C144.342 33.6117 144.036 33.4569 143.692 33.2935C143.477 33.1903 143.245 33.0699 142.996 32.9323C142.746 32.7861 142.506 32.6098 142.273 32.4034C142.05 32.1884 141.865 31.9304 141.719 31.6294C141.572 31.3284 141.499 30.9672 141.499 30.5458C141.499 29.9954 141.624 29.5267 141.873 29.1397C142.131 28.7441 142.493 28.4431 142.957 28.2367C143.43 28.0303 143.985 27.9271 144.621 27.9271C145.103 27.9271 145.559 27.983 145.989 28.0948C146.427 28.2066 146.883 28.3657 147.356 28.5721L146.724 30.0943C146.302 29.9223 145.924 29.789 145.589 29.6944C145.253 29.5998 144.909 29.5525 144.557 29.5525C144.316 29.5525 144.109 29.5912 143.937 29.6686C143.765 29.746 143.632 29.8535 143.538 29.9911C143.452 30.1287 143.409 30.2921 143.409 30.4813C143.409 30.6963 143.473 30.8812 143.602 31.036C143.731 31.1822 143.925 31.3241 144.183 31.4617C144.441 31.5993 144.763 31.7627 145.15 31.9519C145.623 32.1755 146.023 32.4077 146.35 32.6485C146.685 32.8893 146.943 33.1731 147.124 33.4999C147.304 33.8267 147.395 34.2309 147.395 34.7125Z" fill="#081911"/>
<path d="M137.605 32.6485C137.605 33.3623 137.515 34.0116 137.334 34.5964C137.162 35.1726 136.895 35.6714 136.534 36.0928C136.182 36.5142 135.726 36.8367 135.167 37.0603C134.616 37.2839 133.967 37.3957 133.219 37.3957C132.471 37.3957 131.817 37.2839 131.258 37.0603C130.708 36.8281 130.252 36.5056 129.891 36.0928C129.538 35.6714 129.271 35.1683 129.091 34.5835C128.919 33.9987 128.833 33.3494 128.833 32.6356C128.833 31.681 128.988 30.8511 129.297 30.1459C129.615 29.4407 130.097 28.8946 130.742 28.5076C131.396 28.112 132.226 27.9142 133.232 27.9142C134.229 27.9142 135.051 28.112 135.696 28.5076C136.341 28.8946 136.818 29.445 137.128 30.1588C137.446 30.864 137.605 31.6939 137.605 32.6485ZM130.884 32.6485C130.884 33.2935 130.966 33.8482 131.129 34.3126C131.292 34.777 131.546 35.1339 131.89 35.3833C132.234 35.6327 132.677 35.7574 133.219 35.7574C133.778 35.7574 134.225 35.6327 134.56 35.3833C134.904 35.1339 135.154 34.777 135.309 34.3126C135.472 33.8482 135.554 33.2935 135.554 32.6485C135.554 31.6767 135.373 30.9156 135.012 30.3652C134.651 29.8148 134.057 29.5396 133.232 29.5396C132.681 29.5396 132.234 29.6643 131.89 29.9137C131.546 30.1631 131.292 30.52 131.129 30.9844C130.966 31.4488 130.884 32.0035 130.884 32.6485Z" fill="#081911"/>
<path d="M121.636 28.0561C122.822 28.0561 123.687 28.3141 124.228 28.8301C124.779 29.3375 125.054 30.0384 125.054 30.9328C125.054 31.337 124.994 31.724 124.873 32.0938C124.753 32.455 124.551 32.7818 124.267 33.0742C123.992 33.358 123.626 33.5816 123.171 33.745C122.715 33.9084 122.152 33.9901 121.481 33.9901H120.642V37.2667H118.694V28.0561H121.636ZM121.532 29.6557H120.642V32.3905H121.287C121.657 32.3905 121.975 32.3432 122.242 32.2486C122.508 32.154 122.715 32.0035 122.861 31.7971C123.007 31.5907 123.08 31.3241 123.08 30.9973C123.08 30.5415 122.956 30.2061 122.706 29.9911C122.457 29.7675 122.066 29.6557 121.532 29.6557Z" fill="#081911"/>
<path d="M93.9456 33.2305C93.9477 33.2306 93.9498 33.2304 93.9519 33.2305C94.0192 33.2336 94.0881 33.2378 94.171 33.2431C94.1816 33.2438 94.1928 33.2445 94.2039 33.2452C94.3023 33.2515 94.4234 33.2593 94.5881 33.2676C95.1409 33.2956 95.5768 33.2769 95.7128 33.2711C95.9849 33.2595 96.2755 33.2595 96.6716 33.2592C96.7078 33.2592 96.7449 33.2593 96.7829 33.2592C96.8137 33.2592 96.8396 33.2685 96.8403 33.2802C96.8407 33.2918 96.8163 33.3012 96.7857 33.3012H96.6758C96.2774 33.3015 95.9932 33.3017 95.7275 33.3131C95.5885 33.319 95.1419 33.3383 94.5755 33.3096C94.409 33.3012 94.2861 33.2935 94.1871 33.2872C94.1764 33.2865 94.1658 33.2858 94.1556 33.2851C94.0721 33.2798 94.0058 33.2754 93.9414 33.2725H93.9372C93.7706 33.265 93.5683 33.2771 93.4067 33.2753C93.3759 33.275 93.3511 33.2653 93.3514 33.2536C93.3518 33.242 93.3767 33.233 93.4074 33.2333C93.574 33.2352 93.7808 33.2231 93.9456 33.2305ZM151.879 33.2305C151.881 33.2306 151.884 33.2304 151.886 33.2305C151.946 33.2336 152.008 33.2378 152.082 33.2431C152.092 33.2438 152.102 33.2445 152.112 33.2452C152.2 33.2515 152.309 33.2593 152.457 33.2676C152.954 33.2956 153.345 33.2769 153.467 33.2711C153.712 33.2595 153.973 33.2595 154.329 33.2592C154.361 33.2592 154.395 33.2593 154.429 33.2592C154.457 33.2592 154.48 33.2685 154.48 33.2802C154.481 33.2918 154.459 33.3012 154.431 33.3012H154.332C153.975 33.3015 153.719 33.3017 153.481 33.3131C153.356 33.319 152.955 33.3383 152.446 33.3096C152.296 33.3012 152.186 33.2935 152.097 33.2872C152.087 33.2865 152.078 33.2858 152.068 33.2851C151.993 33.2798 151.934 33.2754 151.876 33.2725H151.872C151.723 33.265 151.541 33.2771 151.396 33.2753C151.368 33.275 151.346 33.2653 151.346 33.2536C151.346 33.242 151.369 33.233 151.397 33.2333C151.546 33.2352 151.731 33.2231 151.879 33.2305ZM105.22 33.087C105.41 33.094 105.583 33.1067 105.664 33.1143C105.743 33.1218 105.831 33.124 105.936 33.1255C105.96 33.1259 105.985 33.1266 106.011 33.1269C106.096 33.1279 106.191 33.1292 106.295 33.1325C106.677 33.1448 106.927 33.1448 107.105 33.1437C107.142 33.1435 107.176 33.1433 107.208 33.143C107.329 33.1419 107.419 33.141 107.501 33.1458C107.648 33.1544 107.769 33.1625 107.914 33.1773C108.114 33.1978 108.399 33.1949 108.584 33.1808C108.594 33.1801 108.605 33.1795 108.616 33.1787C108.75 33.1684 108.915 33.156 109.164 33.1465C109.37 33.1387 109.55 33.1387 109.709 33.1409C109.754 33.1416 109.798 33.143 109.84 33.1437C109.945 33.1456 110.039 33.1468 110.128 33.1458C110.679 33.1399 110.997 33.1476 111.197 33.1591C111.35 33.168 111.436 33.1796 111.498 33.1878C111.516 33.1903 111.533 33.1924 111.549 33.1941C111.687 33.2097 111.815 33.2165 111.968 33.2249C112.002 33.2268 112.037 33.2291 112.074 33.2312C112.198 33.2383 112.29 33.237 112.362 33.234C112.394 33.2327 112.422 33.2314 112.448 33.2298L112.449 33.2291C112.453 33.2289 112.457 33.2293 112.46 33.2291C112.463 33.229 112.466 33.2286 112.468 33.2284L112.471 33.2277H112.473C112.478 33.2269 112.483 33.2263 112.483 33.2263C112.485 33.2262 112.487 33.2263 112.487 33.2263C112.49 33.2261 112.495 33.2257 112.498 33.2256C112.507 33.2255 112.522 33.2251 112.544 33.2249C112.563 33.2243 112.582 33.2234 112.606 33.2221C112.607 33.222 112.609 33.2222 112.61 33.2221C112.633 33.2208 112.66 33.2194 112.694 33.2179C112.724 33.2167 112.752 33.2247 112.756 33.2361C112.76 33.2477 112.739 33.2586 112.708 33.2599C112.677 33.2613 112.652 33.2628 112.629 33.2641H112.624C112.601 33.2655 112.577 33.2669 112.553 33.2676C112.545 33.2678 112.537 33.2682 112.529 33.2683C112.515 33.2688 112.499 33.2693 112.48 33.2704C112.476 33.2706 112.472 33.2709 112.468 33.2711C112.442 33.2727 112.411 33.2746 112.377 33.276C112.296 33.2793 112.194 33.2809 112.06 33.2732C112.024 33.2712 111.99 33.2687 111.957 33.2669C111.803 33.2585 111.666 33.2513 111.519 33.2347C111.499 33.2324 111.479 33.2298 111.458 33.227C111.397 33.2189 111.324 33.2093 111.182 33.2011C110.992 33.1902 110.681 33.1826 110.134 33.1885C110.04 33.1895 109.939 33.1876 109.832 33.1857C109.791 33.185 109.749 33.1842 109.707 33.1836C109.55 33.1815 109.376 33.181 109.177 33.1885C108.934 33.1977 108.773 33.2098 108.639 33.22C108.635 33.2204 108.63 33.2211 108.625 33.2214C108.62 33.2218 108.614 33.2224 108.609 33.2228C108.411 33.2378 108.108 33.2405 107.887 33.2179C107.748 33.2037 107.633 33.1964 107.487 33.1878C107.415 33.1836 107.337 33.1847 107.219 33.1857C107.186 33.186 107.15 33.1862 107.109 33.1864C106.928 33.1876 106.675 33.1869 106.288 33.1745C106.187 33.1713 106.096 33.1699 106.011 33.1689C105.985 33.1686 105.959 33.1686 105.934 33.1682C105.828 33.1667 105.73 33.1643 105.638 33.1556C105.563 33.1485 105.396 33.1365 105.211 33.1297C105.025 33.1229 104.827 33.1217 104.686 33.1353C104.671 33.1368 104.656 33.1381 104.641 33.1395C104.514 33.1517 104.384 33.1638 104.279 33.1843C103.81 33.3138 102.96 33.2649 102.399 33.2571C102.392 33.257 102.384 33.2565 102.377 33.2564C101.73 33.2474 101.259 33.249 101.099 33.2494H101.064C100.999 33.2495 100.941 33.2506 100.881 33.2522C100.877 33.2523 100.874 33.2528 100.871 33.2529C100.807 33.2546 100.739 33.2559 100.66 33.2557C100.365 33.2552 100.124 33.2572 99.9162 33.2592C99.8777 33.2596 99.8401 33.2602 99.8035 33.2606L99.3661 33.2634C99.1202 33.2634 98.9537 33.2661 98.8244 33.269C98.7839 33.2699 98.7463 33.2709 98.711 33.2718C98.6349 33.2737 98.5683 33.2754 98.4997 33.276C98.3705 33.2771 98.2514 33.2802 98.1343 33.283C98.1239 33.2833 98.1133 33.2835 98.1029 33.2837C97.976 33.2868 97.8501 33.2892 97.7172 33.2893C97.6865 33.2893 97.6612 33.28 97.6605 33.2683C97.6599 33.2566 97.6843 33.2473 97.7151 33.2473C97.8442 33.2472 97.9668 33.2441 98.0938 33.241C98.1042 33.2408 98.1147 33.2406 98.1252 33.2403C98.2421 33.2375 98.3632 33.2351 98.4948 33.234C98.5609 33.2335 98.6238 33.2317 98.6984 33.2298C98.7341 33.2289 98.7726 33.228 98.8153 33.227C98.9465 33.2241 99.115 33.2214 99.3633 33.2214C99.4966 33.2214 99.6371 33.2196 99.7972 33.2179C99.834 33.2175 99.8723 33.2176 99.9113 33.2172C100.12 33.2152 100.362 33.2132 100.658 33.2137C100.733 33.2139 100.797 33.2119 100.86 33.2102C100.864 33.2101 100.868 33.2103 100.872 33.2102C100.931 33.2087 100.992 33.2068 101.061 33.2067C101.07 33.2067 101.083 33.2068 101.097 33.2067C101.258 33.2063 101.73 33.2054 102.379 33.2144C102.381 33.2145 102.383 33.2144 102.385 33.2144C102.82 33.2205 103.066 33.2242 103.25 33.2137C103.396 33.2055 103.505 33.2028 103.595 33.2018C103.612 33.2016 103.628 33.202 103.644 33.2018C103.71 33.2012 103.763 33.2006 103.815 33.1976C103.974 33.1887 104.088 33.1744 104.226 33.1472C104.343 33.1242 104.487 33.1102 104.612 33.0982C104.627 33.0968 104.642 33.0954 104.656 33.094C104.817 33.0786 105.031 33.0801 105.22 33.087ZM162.008 33.087C162.179 33.094 162.333 33.1067 162.406 33.1143C162.477 33.1218 162.556 33.124 162.65 33.1255C162.672 33.1259 162.694 33.1266 162.718 33.1269C162.794 33.1279 162.88 33.1292 162.973 33.1325C163.317 33.1448 163.542 33.1448 163.702 33.1437C163.735 33.1435 163.765 33.1433 163.794 33.143C163.902 33.1419 163.983 33.141 164.057 33.1458C164.189 33.1544 164.298 33.1625 164.428 33.1773C164.608 33.1978 164.864 33.1949 165.03 33.1808C165.039 33.1801 165.049 33.1795 165.058 33.1787C165.179 33.1685 165.327 33.156 165.55 33.1465C165.735 33.1387 165.897 33.1387 166.04 33.1409C166.081 33.1416 166.12 33.143 166.157 33.1437C166.252 33.1456 166.337 33.1468 166.416 33.1458C166.911 33.1399 167.197 33.1476 167.377 33.1591C167.515 33.168 167.592 33.1796 167.648 33.1878C167.664 33.1903 167.679 33.1924 167.693 33.1941C167.818 33.2097 167.932 33.2165 168.07 33.2249C168.1 33.2268 168.132 33.2291 168.165 33.2312C168.276 33.2383 168.359 33.237 168.424 33.234C168.452 33.2327 168.477 33.2314 168.501 33.2298L168.502 33.2291C168.505 33.2289 168.509 33.2293 168.512 33.2291C168.514 33.229 168.517 33.2286 168.519 33.2284L168.522 33.2277H168.523C168.527 33.2269 168.532 33.2263 168.532 33.2263H168.536C168.539 33.2261 168.543 33.2257 168.546 33.2256C168.554 33.2255 168.567 33.2251 168.587 33.2249C168.604 33.2243 168.622 33.2234 168.643 33.2221H168.646C168.667 33.2208 168.691 33.2194 168.721 33.2179C168.748 33.2166 168.774 33.2246 168.778 33.2361C168.781 33.2477 168.762 33.2586 168.734 33.2599C168.706 33.2613 168.684 33.2628 168.663 33.2641H168.659C168.637 33.2655 168.617 33.2669 168.595 33.2676C168.588 33.2678 168.58 33.2682 168.573 33.2683C168.561 33.2688 168.546 33.2693 168.529 33.2704C168.526 33.2706 168.522 33.2709 168.518 33.2711C168.495 33.2727 168.467 33.2746 168.436 33.276C168.364 33.2793 168.273 33.2809 168.152 33.2732C168.121 33.2712 168.09 33.2687 168.06 33.2669C167.922 33.2585 167.799 33.2512 167.666 33.2347C167.648 33.2324 167.63 33.2298 167.612 33.227C167.557 33.2189 167.491 33.2093 167.363 33.2011C167.192 33.1902 166.914 33.1826 166.421 33.1885C166.338 33.1895 166.247 33.1876 166.151 33.1857C166.114 33.185 166.076 33.1842 166.038 33.1836C165.897 33.1815 165.741 33.181 165.563 33.1885C165.345 33.1977 165.2 33.2098 165.08 33.22C165.076 33.2204 165.071 33.2211 165.067 33.2214C165.062 33.2219 165.057 33.2224 165.052 33.2228C164.874 33.2378 164.602 33.2405 164.404 33.2179C164.279 33.2037 164.175 33.1964 164.044 33.1878C163.979 33.1836 163.91 33.1847 163.804 33.1857C163.774 33.186 163.741 33.1862 163.705 33.1864C163.542 33.1876 163.314 33.1869 162.967 33.1745C162.876 33.1713 162.795 33.1699 162.718 33.1689C162.695 33.1686 162.672 33.1686 162.649 33.1682C162.554 33.1667 162.466 33.1643 162.384 33.1556C162.316 33.1485 162.166 33.1365 162 33.1297C161.833 33.1229 161.655 33.1217 161.528 33.1353C161.515 33.1368 161.501 33.1381 161.488 33.1395C161.373 33.1517 161.257 33.1637 161.163 33.1843C160.741 33.3138 159.977 33.2649 159.474 33.2571C159.467 33.257 159.461 33.2565 159.454 33.2564C158.873 33.2474 158.451 33.249 158.306 33.2494H158.274C158.216 33.2495 158.164 33.2506 158.11 33.2522C158.107 33.2523 158.104 33.2528 158.101 33.2529C158.043 33.2546 157.983 33.2559 157.912 33.2557C157.647 33.2552 157.43 33.2572 157.243 33.2592C157.209 33.2596 157.175 33.2602 157.142 33.2606C156.998 33.2623 156.87 33.2634 156.749 33.2634C156.528 33.2634 156.379 33.2661 156.263 33.269C156.226 33.2699 156.192 33.2709 156.161 33.2718C156.092 33.2737 156.032 33.2754 155.971 33.276C155.855 33.2771 155.748 33.2802 155.643 33.283C155.633 33.2833 155.624 33.2835 155.615 33.2837C155.501 33.2868 155.388 33.2892 155.268 33.2893C155.241 33.2893 155.218 33.28 155.217 33.2683C155.217 33.2566 155.238 33.2473 155.266 33.2473C155.382 33.2472 155.492 33.2441 155.606 33.241C155.616 33.2408 155.625 33.2406 155.634 33.2403C155.739 33.2375 155.848 33.2351 155.967 33.234C156.026 33.2335 156.082 33.2317 156.149 33.2298C156.181 33.2289 156.216 33.228 156.254 33.227C156.372 33.2241 156.524 33.2214 156.747 33.2214C156.867 33.2214 156.993 33.2196 157.137 33.2179C157.17 33.2175 157.204 33.2176 157.239 33.2172C157.426 33.2152 157.644 33.2132 157.91 33.2137C157.977 33.2138 158.034 33.2119 158.091 33.2102C158.095 33.2101 158.098 33.2103 158.101 33.2102C158.155 33.2087 158.21 33.2068 158.272 33.2067C158.28 33.2067 158.291 33.2068 158.304 33.2067C158.448 33.2063 158.872 33.2054 159.456 33.2144C159.457 33.2145 159.459 33.2144 159.461 33.2144C159.852 33.2205 160.073 33.2242 160.239 33.2137C160.37 33.2055 160.468 33.2028 160.548 33.2018C160.563 33.2016 160.578 33.202 160.591 33.2018C160.651 33.2012 160.699 33.2006 160.746 33.1976C160.889 33.1887 160.991 33.1743 161.115 33.1472C161.22 33.1242 161.349 33.1102 161.461 33.0982C161.475 33.0968 161.488 33.0954 161.501 33.094C161.646 33.0785 161.838 33.0801 162.008 33.087ZM113.136 33.1899C113.167 33.1903 113.192 33.1999 113.191 33.2116C113.191 33.2232 113.166 33.2322 113.135 33.2319C113.062 33.2311 112.988 33.23 112.915 33.2291C112.884 33.2288 112.859 33.2191 112.859 33.2074C112.86 33.1959 112.885 33.1868 112.916 33.1871C112.989 33.188 113.063 33.1891 113.136 33.1899ZM169.119 33.1899C169.146 33.1903 169.169 33.1999 169.168 33.2116C169.168 33.2232 169.145 33.2323 169.118 33.2319C169.052 33.2311 168.986 33.23 168.92 33.2291C168.892 33.2288 168.87 33.2191 168.87 33.2074C168.871 33.1959 168.893 33.1869 168.921 33.1871C168.987 33.188 169.053 33.1891 169.119 33.1899ZM104.528 32.8834C104.558 32.8811 104.587 32.8888 104.594 32.9002C104.601 32.9116 104.582 32.9223 104.552 32.9247C104.536 32.9259 104.51 32.9286 104.475 32.9317C104.222 32.9537 103.498 33.0162 102.731 33.0346C102.667 33.0361 102.608 33.038 102.553 33.0395C102.318 33.0457 102.128 33.0757 101.677 33.0744C99.7806 33.0693 97.8855 33.0159 95.992 33.0527C95.4452 33.0634 94.9002 33.0647 94.353 33.0639C93.8968 33.0634 93.0604 33.0417 92.8636 33.0395C92.8329 33.0391 92.8082 33.0294 92.8083 33.0178C92.8087 33.0061 92.8342 32.9971 92.865 32.9975C93.0609 32.9997 93.8938 33.0214 94.3481 33.022C94.8943 33.0227 95.4385 33.0207 95.9843 33.0101C97.88 32.9731 99.7812 32.9755 101.68 32.9807C102.127 32.9819 102.309 33.0037 102.544 32.9975C102.599 32.996 102.657 32.9941 102.722 32.9926C103.478 32.9745 104.191 32.9126 104.447 32.8904C104.483 32.8872 104.511 32.8847 104.528 32.8834ZM161.386 32.8834C161.413 32.881 161.44 32.8887 161.446 32.9002C161.452 32.9115 161.435 32.9223 161.408 32.9247C161.394 32.9259 161.37 32.9286 161.338 32.9317C161.11 32.9537 160.461 33.0162 159.772 33.0346C159.714 33.0361 159.662 33.038 159.612 33.0395C159.401 33.0457 159.231 33.0757 158.826 33.0744C157.122 33.0693 155.419 33.0159 153.718 33.0527C153.227 33.0634 152.737 33.0647 152.245 33.0639C151.836 33.0633 151.085 33.0417 150.908 33.0395C150.88 33.0391 150.858 33.0294 150.858 33.0178C150.859 33.0061 150.881 32.9972 150.909 32.9975C151.084 32.9997 151.833 33.0214 152.241 33.022C152.732 33.0227 153.221 33.0207 153.711 33.0101C155.414 32.9731 157.122 32.9755 158.828 32.9807C159.229 32.9819 159.392 33.0037 159.603 32.9975C159.653 32.996 159.705 32.9941 159.763 32.9926C160.443 32.9745 161.083 32.9126 161.314 32.8904C161.346 32.8872 161.371 32.8847 161.386 32.8834ZM105.962 32.9009C106.307 32.8977 106.797 32.9036 107.224 32.9086C107.433 32.911 107.627 32.9132 107.782 32.9142C108.023 32.9157 108.174 32.9258 108.324 32.9359C108.326 32.936 108.328 32.9365 108.329 32.9366C108.479 32.9466 108.63 32.9567 108.874 32.9583C109.12 32.9598 109.461 32.9526 109.805 32.9457H109.806C110.148 32.9387 110.495 32.9105 110.745 32.9121C111.619 32.9178 112.158 32.9466 112.431 32.9695C112.907 33.0094 113.447 32.9645 113.934 33.015C113.988 33.0261 113.897 33.0585 113.798 33.0493C113.795 33.049 113.791 33.0488 113.788 33.0486C113.754 33.0461 113.724 33.0438 113.682 33.0423C113.621 33.0409 113.576 33.0409 113.534 33.0409C113.426 33.0407 112.674 33.033 112.408 33.0108C112.15 32.9891 111.622 33.0116 110.743 33.0059C110.497 33.0043 110.157 32.9814 109.813 32.9884H109.81C109.469 32.9953 109.124 33.0019 108.874 33.0003C108.621 32.9986 108.464 32.988 108.312 32.9779C108.31 32.9778 108.308 32.978 108.307 32.9779C108.158 32.9679 108.014 32.9583 107.782 32.9569C107.623 32.9559 107.427 32.9537 107.217 32.9513C106.791 32.9463 106.309 32.9404 105.967 32.9436C105.936 32.9439 105.91 32.9343 105.909 32.9226C105.908 32.911 105.932 32.9012 105.962 32.9009ZM162.674 32.9009C162.984 32.8977 163.424 32.9036 163.808 32.9086C163.995 32.911 164.17 32.9132 164.309 32.9142C164.525 32.9157 164.661 32.9258 164.796 32.9359L164.8 32.9366C164.935 32.9466 165.07 32.9567 165.29 32.9583C165.511 32.9598 165.818 32.9526 166.127 32.9457C166.434 32.9388 166.746 32.9104 166.971 32.9121C167.756 32.9178 168.24 32.9466 168.485 32.9695C168.912 33.0094 169.398 32.9645 169.835 33.015C169.884 33.0261 169.802 33.0585 169.714 33.0493C169.71 33.049 169.707 33.0488 169.704 33.0486C169.673 33.0461 169.647 33.0438 169.609 33.0423C169.555 33.0409 169.514 33.0409 169.477 33.0409C169.38 33.0407 168.704 33.0331 168.465 33.0108C168.233 32.9891 167.759 33.0116 166.969 33.0059C166.748 33.0043 166.443 32.9814 166.134 32.9884H166.131C165.824 32.9953 165.515 33.0019 165.29 33.0003C165.063 32.9986 164.922 32.988 164.785 32.9779H164.781C164.647 32.9679 164.517 32.9583 164.309 32.9569C164.167 32.9559 163.99 32.9537 163.802 32.9513C163.419 32.9463 162.986 32.9404 162.679 32.9436C162.651 32.9439 162.628 32.9343 162.627 32.9226C162.626 32.911 162.647 32.9012 162.674 32.9009ZM105.969 32.6377C106.937 32.5908 107.911 32.6036 108.865 32.6531C109.114 32.6547 109.461 32.6582 109.808 32.6615C109.812 32.6616 109.816 32.6615 109.82 32.6615C110.163 32.6648 110.505 32.6683 110.75 32.6699C111.624 32.6756 112.165 32.6828 112.438 32.7056C112.691 32.7269 112.762 32.7272 112.867 32.7273H112.876C112.879 32.7268 112.882 32.7268 112.883 32.7266C112.887 32.7263 112.89 32.7259 112.89 32.7259H112.903C112.922 32.7261 112.98 32.727 113.026 32.7287C113.073 32.7305 113.107 32.7332 113.142 32.7357C113.146 32.736 113.15 32.7361 113.154 32.7364C113.186 32.7387 113.22 32.7414 113.27 32.7441C113.301 32.7458 113.323 32.7563 113.319 32.7679C113.316 32.7795 113.288 32.7877 113.257 32.7861C113.204 32.7832 113.167 32.78 113.135 32.7777C113.131 32.7774 113.128 32.7773 113.124 32.777C113.09 32.7746 113.06 32.773 113.018 32.7714C112.958 32.7701 112.912 32.7701 112.871 32.77C112.763 32.7698 112.681 32.7692 112.415 32.7469C112.157 32.7253 111.63 32.7176 110.751 32.7119C110.505 32.7103 110.162 32.7075 109.819 32.7042C109.815 32.7042 109.811 32.7035 109.807 32.7035C109.46 32.7002 109.113 32.6974 108.865 32.6958C107.896 32.6896 106.948 32.7106 105.974 32.6797C105.795 32.6814 105.631 32.6819 105.479 32.6825C105.033 32.6843 104.691 32.6855 104.365 32.7112C104.293 32.7168 104.105 32.7221 103.834 32.728C103.755 32.7298 103.667 32.7316 103.573 32.7336C103.342 32.7385 103.068 32.7444 102.76 32.7518C102.695 32.7533 102.638 32.7545 102.583 32.756C102.347 32.7623 102.16 32.767 101.709 32.7658C101.154 32.7643 100.225 32.7543 99.7273 32.7462C99.4782 32.7422 99.3375 32.7381 99.238 32.735C99.2105 32.7341 99.1861 32.7337 99.1639 32.7329C99.1055 32.731 99.0595 32.729 99.0001 32.728C98.5724 32.7208 98.2729 32.7261 97.7823 32.7364C97.7516 32.7371 97.7244 32.7278 97.7221 32.7161C97.7202 32.7045 97.7434 32.6944 97.7739 32.6937C98.2652 32.6834 98.5693 32.6787 99.0029 32.686C99.0649 32.6871 99.1136 32.6889 99.173 32.6909C99.195 32.6917 99.2188 32.6922 99.245 32.693C99.3429 32.6961 99.4823 32.6995 99.73 32.7035C100.227 32.7116 101.155 32.7223 101.708 32.7238C102.155 32.725 102.337 32.7203 102.572 32.714C102.627 32.7125 102.686 32.7107 102.751 32.7091C103.059 32.7017 103.334 32.6958 103.565 32.6909C103.659 32.6889 103.746 32.6871 103.825 32.6853C104.101 32.6792 104.278 32.6747 104.339 32.6699C104.677 32.6433 105.035 32.6423 105.486 32.6405C105.636 32.6399 105.796 32.6393 105.969 32.6377ZM162.681 32.6377C163.55 32.5908 164.424 32.6036 165.281 32.6531C165.505 32.6547 165.818 32.6582 166.129 32.6615C166.133 32.6616 166.137 32.6615 166.14 32.6615C166.448 32.6648 166.755 32.6683 166.976 32.6699C167.76 32.6756 168.247 32.6828 168.492 32.7056C168.719 32.7269 168.783 32.7272 168.876 32.7273C168.879 32.7273 168.882 32.7273 168.885 32.7273C168.888 32.7268 168.89 32.7268 168.892 32.7266C168.895 32.7263 168.898 32.7259 168.898 32.7259H168.909C168.926 32.7261 168.978 32.727 169.02 32.7287C169.062 32.7305 169.093 32.7332 169.125 32.7357C169.128 32.736 169.132 32.7362 169.135 32.7364C169.163 32.7387 169.195 32.7414 169.24 32.7441C169.267 32.7458 169.286 32.7563 169.283 32.7679C169.28 32.7794 169.255 32.7877 169.228 32.7861C169.18 32.7832 169.147 32.78 169.118 32.7777C169.115 32.7774 169.111 32.7773 169.108 32.777C169.078 32.7746 169.051 32.773 169.013 32.7714C168.958 32.7701 168.918 32.7701 168.881 32.77C168.784 32.7698 168.71 32.7692 168.471 32.7469C168.239 32.7253 167.766 32.7176 166.976 32.7119C166.756 32.7103 166.448 32.7075 166.14 32.7042C166.136 32.7042 166.132 32.7035 166.129 32.7035C165.817 32.7002 165.505 32.6974 165.282 32.6958C164.412 32.6896 163.56 32.7105 162.685 32.6797C162.525 32.6814 162.377 32.6819 162.241 32.6825C161.84 32.6843 161.532 32.6855 161.239 32.7112C161.174 32.7168 161.006 32.7221 160.763 32.728C160.692 32.7298 160.613 32.7316 160.528 32.7336C160.321 32.7385 160.075 32.7444 159.798 32.7518C159.74 32.7534 159.688 32.7545 159.638 32.756C159.427 32.7623 159.259 32.767 158.854 32.7658C158.356 32.7643 157.521 32.7543 157.074 32.7462C156.85 32.7422 156.724 32.7381 156.634 32.735C156.609 32.7341 156.587 32.7337 156.567 32.7329C156.515 32.731 156.474 32.729 156.421 32.728C156.037 32.7208 155.767 32.7261 155.326 32.7364C155.299 32.7371 155.275 32.7278 155.272 32.7161C155.271 32.7046 155.291 32.6944 155.319 32.6937C155.76 32.6834 156.033 32.6787 156.423 32.686C156.479 32.6871 156.522 32.6889 156.576 32.6909C156.595 32.6917 156.617 32.6922 156.641 32.693C156.729 32.6961 156.854 32.6995 157.076 32.7035C157.522 32.7116 158.356 32.7223 158.853 32.7238C159.254 32.725 159.418 32.7203 159.629 32.714C159.679 32.7125 159.731 32.7107 159.789 32.7091C160.067 32.7017 160.313 32.6958 160.521 32.6909C160.605 32.6889 160.683 32.6871 160.754 32.6853C161.003 32.6792 161.162 32.6748 161.217 32.6699C161.521 32.6433 161.842 32.6423 162.246 32.6405C162.381 32.6399 162.525 32.6393 162.681 32.6377ZM96.013 32.7266C96.0437 32.726 96.0702 32.7353 96.0725 32.7469C96.0747 32.7586 96.0515 32.7687 96.0207 32.7693C95.8585 32.7725 95.7418 32.775 95.6505 32.777C95.4814 32.7808 95.3992 32.7829 95.2768 32.7826C94.961 32.7818 94.656 32.7809 94.3816 32.7805C93.9256 32.7799 93.5538 32.7799 93.357 32.7777C93.3265 32.7774 93.3019 32.7675 93.3017 32.756C93.3021 32.7444 93.3271 32.7347 93.3577 32.735C93.5531 32.7372 93.9223 32.7379 94.3767 32.7385C94.6515 32.7389 94.9575 32.7391 95.2754 32.7399C95.394 32.7402 95.4713 32.7387 95.6365 32.735C95.7278 32.733 95.8462 32.7299 96.013 32.7266ZM153.737 32.7266C153.764 32.726 153.789 32.7353 153.791 32.7469C153.793 32.7586 153.772 32.7687 153.744 32.7693C153.598 32.7725 153.493 32.775 153.411 32.777C153.26 32.7808 153.186 32.7829 153.076 32.7826C152.792 32.7818 152.518 32.7809 152.271 32.7805C151.862 32.7799 151.528 32.7799 151.351 32.7777C151.324 32.7773 151.302 32.7675 151.301 32.756C151.302 32.7443 151.325 32.7347 151.352 32.735C151.528 32.7372 151.859 32.7379 152.267 32.7385C152.514 32.7389 152.789 32.7391 153.075 32.7399C153.181 32.7402 153.251 32.7387 153.399 32.735C153.481 32.733 153.587 32.7299 153.737 32.7266Z" fill="#276842"/>
</svg>
